<svg version="1.1" id="Layer_1" xmlns="http://www.w3.org/2000/svg" xmlns:xlink="http://www.w3.org/1999/xlink" x="0px" y="0px"
	 width="100%" viewBox="0 0 1560 2240" enable-background="new 0 0 1560 2240" xml:space="preserve">
<path fill="#F7CE00" opacity="1.000000" stroke="none" 
	d="
M1561.000000,1121.000000 
	C1561.000000,1494.293823 1561.000000,1867.587769 1561.000000,2240.940918 
	C1041.094482,2240.940918 521.188904,2240.940918 1.000000,2240.940918 
	C1.000000,1867.967285 1.000000,1494.934570 1.450905,1121.450928 
	C521.601196,1121.000000 1041.300659,1121.000000 1561.000000,1121.000000 
z"/>
<path fill="#0057B4" opacity="1.000000" stroke="none" 
	d="
M1561.000000,1120.549072 
	C1041.300659,1121.000000 521.601196,1121.000000 1.450905,1121.000000 
	C1.000000,748.300598 1.000000,375.601196 1.447632,2.451095 
	C521.596863,2.000253 1041.298462,2.000127 1561.000000,2.000000 
	C1561.000000,374.699371 1561.000000,747.398743 1561.000000,1120.549072 
z"/>
<path fill="#E0EAF4" opacity="1.000000" stroke="none" 
	d="
M1561.000000,1.500000 
	C1041.298462,2.000127 521.596863,2.000253 1.447632,2.000190 
	C1.166667,1.666667 1.315919,1.056198 1.502793,1.044456 
	C2.830883,0.961004 4.166667,1.000000 5.500000,1.000000 
	C524.000000,1.000000 1042.500000,1.000000 1561.000000,1.500000 
z"/>
</svg>