 <svg version="1.0" xmlns="http://www.w3.org/2000/svg" width="450.000000pt" height="646.000000pt" viewBox="0 0 450.000000 646.000000" preserveAspectRatio="xMidYMid meet">  <g transform="translate(0.000000,646.000000) scale(0.100000,-0.100000)" fill="#fff" stroke="none"> <path d="M1122 6453 c621 -2 1635 -2 2255 0 621 1 113 2 -1127 2 -1240 0 -1748 -1 -1128 -2z"></path> <path d="M0 4845 l0 -1595 2250 0 2250 0 0 1595 0 1594 -2250 1 -2250 0 0 -1595z"></path> <path d="M0 1615 l0 -1615 2250 0 2250 0 0 1615 0 1615 -2250 0 -2250 0 0 -1615z"></path> </g> </svg> 